HIERARCHY
ROOT Hips
{
 OFFSET 0.000000 0.000000 0.000000
 CHANNELS 6 Xposition Yposition Zposition Yrotation Xrotation Zrotation
 JOINT Chest
 {
  OFFSET 0.000000 9.585900 0.002600
  CHANNELS 3 Yrotation Xrotation Zrotation
  JOINT Chest2
  {
   OFFSET 0.000000 9.601200 -0.005300
   CHANNELS 3 Yrotation Xrotation Zrotation
   JOINT Chest3
   {
    OFFSET 0.000000 9.561800 0.000000
    CHANNELS 3 Yrotation Xrotation Zrotation
    JOINT Chest4
    {
     OFFSET 0.000000 9.552100 0.000000
     CHANNELS 3 Yrotation Xrotation Zrotation
     JOINT Neck
     {
      OFFSET 0.000000 14.453000 0.000000
      CHANNELS 3 Yrotation Xrotation Zrotation
      JOINT Head
      {
       OFFSET 0.000000 8.936500 -0.011300
       CHANNELS 3 Yrotation Xrotation Zrotation
       End Site
       {
        OFFSET 0.000000 17.073600 -0.006000
       }
      }
     }
     JOINT RightCollar
     {
      OFFSET -2.921100 9.558500 0.000000
      CHANNELS 3 Yrotation Xrotation Zrotation
      JOINT RightShoulder
      {
       OFFSET -13.519700 0.000000 0.000000
       CHANNELS 3 Yrotation Xrotation Zrotation
       JOINT RightElbow
       {
        OFFSET 0.000000 -29.696600 0.000000
        CHANNELS 3 Yrotation Xrotation Zrotation
        JOINT RightWrist
        {
         OFFSET 0.000000 -24.004700 0.000000
         CHANNELS 3 Yrotation Xrotation Zrotation
         End Site
         {
          OFFSET 0.000000 -17.728500 0.000000
         }
        }
       }
      }
     }
     JOINT LeftCollar
     {
      OFFSET 2.921100 9.558500 0.000000
      CHANNELS 3 Yrotation Xrotation Zrotation
      JOINT LeftShoulder
      {
       OFFSET 13.519700 0.000000 0.000000
       CHANNELS 3 Yrotation Xrotation Zrotation
       JOINT LeftElbow
       {
        OFFSET 0.000000 -29.696600 0.000000
        CHANNELS 3 Yrotation Xrotation Zrotation
        JOINT LeftWrist
        {
         OFFSET 0.000000 -24.004700 0.000000
         CHANNELS 3 Yrotation Xrotation Zrotation
         End Site
         {
          OFFSET 0.000000 -17.728500 0.000000
         }
        }
       }
      }
     }
    }
   }
  }
 }
 JOINT RightHip
 {
  OFFSET -7.771700 -0.012900 -0.001300
  CHANNELS 3 Yrotation Xrotation Zrotation
  JOINT RightKnee
  {
   OFFSET 0.000000 -40.869800 0.001200
   CHANNELS 3 Yrotation Xrotation Zrotation
   JOINT RightAnkle
   {
    OFFSET 0.000000 -39.717900 0.002100
    CHANNELS 3 Yrotation Xrotation Zrotation
    JOINT RightToe
    {
     OFFSET 0.000000 -4.965400 11.033500
     CHANNELS 3 Yrotation Xrotation Zrotation
     End Site
     {
      OFFSET 0.000000 -1.423100 5.872300
     }
    }
   }
  }
 }
 JOINT LeftHip
 {
  OFFSET 7.771700 -0.012900 -0.001300
  CHANNELS 3 Yrotation Xrotation Zrotation
  JOINT LeftKnee
  {
   OFFSET 0.000000 -40.869800 0.001200
   CHANNELS 3 Yrotation Xrotation Zrotation
   JOINT LeftAnkle
   {
    OFFSET 0.000000 -39.717900 0.002100
    CHANNELS 3 Yrotation Xrotation Zrotation
    JOINT LeftToe
    {
     OFFSET 0.000000 -4.965400 11.033500
     CHANNELS 3 Yrotation Xrotation Zrotation
     End Site
     {
      OFFSET 0.000000 -1.423100 5.872300
     }
    }
   }
  }
 }
}
MOTION
Frames: 16
Frame Time: 0.008333
0.000000 85.388000 0.000000 0.000000 -5.767877 0.000000 0.000000 11.653817 0.000000 0.000000 -5.885947 0.000000 0.000000 -0.000000 0.000000 0.000000 -0.000000 0.000000 0.000000 12.528835 0.000000 0.000000 0.711642 0.000000 0.000000 -0.000000 0.000000 0.000000 0.000000 -90.000000 0.000000 -2.309062 0.000000 0.000000 2.309062 0.000000 0.000000 -0.000000 0.000000 0.000000 -0.000000 90.000000 0.000000 -2.309062 0.000000 0.000000 2.309062 0.000000 0.000000 8.520406 0.000000 0.000000 1.905762 0.000000 -0.000000 -4.658285 0.000000 0.000000 -0.000000 0.000000 0.000000 8.520406 0.000000 0.000000 1.905762 0.000000 -0.000000 -4.658285 0.000000 0.000000 -0.000000 0.000000
-7.313675 55.380139 24.271765 -179.314176 -31.060986 -9.478086 0.574422 16.391349 5.206531 0.271562 9.347784 2.492707 0.405329 11.810630 3.163037 0.262674 9.350662 2.497735 4.947268 20.652663 -1.871886 5.768704 -3.650973 -3.170154 0.997058 5.227033 -2.053176 -14.093186 -10.799117 2.313434 -168.225378 -68.561216 -169.560020 11.622295 -13.774438 -17.430379 -11.224560 4.454817 -3.282757 7.176011 -7.283530 0.662367 -134.612142 -57.787180 145.430286 22.780339 -31.124732 4.096983 -17.227544 -35.033242 7.333541 24.408800 86.933729 21.571607 0.644468 -17.490200 -1.416111 0.012667 0.579371 0.021718 -12.845248 -46.905873 13.435224 176.476677 80.421319 171.349222 -2.921261 -17.317569 2.922650 -0.053386 -0.555578 -0.028790
-7.310450 55.385339 24.287060 -179.330442 -31.065004 -9.469381 0.584393 16.421045 5.216695 0.275380 9.379740 2.493323 0.418770 11.828186 3.164899 0.274383 9.401775 2.503134 4.955688 20.657646 -1.886692 5.786273 -3.610566 -3.182820 0.972260 5.293130 -2.027514 -14.053209 -10.789427 2.342431 -168.011379 -68.574644 -169.720981 11.620374 -13.779040 -17.463445 -11.250363 4.530098 -3.259509 7.149652 -7.276087 0.674524 -134.515186 -57.783122 145.345432 22.675690 -31.200208 4.023457 -17.225390 -35.034460 7.342156 24.763078 86.904336 21.927884 0.623404 -17.464447 -1.431935 0.020410 0.578251 0.019406 -12.817191 -46.908592 13.420457 176.452405 80.439353 171.338341 -2.917069 -17.287149 2.918706 -0.052996 -0.560640 -0.027845
-7.307108 55.391231 24.303384 -179.341961 -31.072783 -9.458167 0.593329 16.439135 5.217323 0.285012 9.454222 2.513167 0.419947 11.791280 3.150401 0.287762 9.458139 2.509538 4.959291 20.664799 -1.903959 5.778726 -3.643389 -3.191007 0.949624 5.367721 -2.001496 -14.014755 -10.780270 2.368268 -167.763813 -68.593437 -169.917970 11.617660 -13.782889 -17.491734 -11.278419 4.617402 -3.238455 7.138214 -7.265367 0.685506 -134.393863 -57.762377 145.243778 22.582484 -31.262563 3.924298 -17.224780 -35.032285 7.355450 24.538628 86.886743 21.693768 0.622853 -17.438103 -1.437572 0.028828 0.577106 0.017529 -12.785356 -46.905693 13.395735 176.402062 80.461058 171.300638 -2.913203 -17.262161 2.914160 -0.055134 -0.560965 -0.026887
-7.303351 55.397452 24.319634 -179.352944 -31.085113 -9.444632 0.604443 16.459368 5.216403 0.288327 9.476746 2.516242 0.429153 11.810359 3.151466 0.294936 9.473393 2.510225 4.963813 20.696260 -1.917664 5.798409 -3.569096 -3.209137 0.932870 5.466989 -1.968998 -13.973392 -10.770895 2.389043 -167.529811 -68.610252 -170.119205 11.612643 -13.784481 -17.503238 -11.304727 4.732625 -3.218961 7.138927 -7.248066 0.694084 -134.285939 -57.734219 145.151099 22.497267 -31.308066 3.807096 -17.220533 -35.027966 7.357775 24.735520 86.863202 21.886857 0.612757 -17.408543 -1.451943 0.027679 0.573086 0.017677 -12.753600 -46.897223 13.369463 176.330697 80.482961 171.239387 -2.919174 -17.237513 2.914097 -0.050876 -0.560309 -0.029078
-7.298047 55.403351 24.335520 -179.372965 -31.098493 -9.431711 0.618753 16.486490 5.220946 0.295873 9.490249 2.514594 0.442428 11.839364 3.154386 0.300003 9.473694 2.508477 4.965398 20.725601 -1.933119 5.813885 -3.500530 -3.231341 0.919959 5.557706 -1.933845 -13.925948 -10.756622 2.403764 -167.354304 -68.618364 -170.281843 11.607528 -13.776820 -17.502948 -11.331536 4.843757 -3.199016 7.147620 -7.224892 0.701816 -134.209495 -57.708178 145.082666 22.416801 -31.338570 3.687064 -17.201636 -35.022870 7.354172 24.870508 86.834976 22.034246 0.616952 -17.382639 -1.473847 0.015942 0.573651 0.018079 -12.725985 -46.886626 13.356546 176.274805 80.502337 171.189146 -2.919318 -17.215500 2.906930 -0.050852 -0.559545 -0.025818
-7.292674 55.408070 24.350707 -179.415640 -31.110329 -9.404655 0.647544 16.522778 5.223969 0.306037 9.490221 2.509688 0.451188 11.853902 3.154321 0.306945 9.485324 2.508260 4.966584 20.752015 -1.951491 5.820162 -3.469141 -3.251826 0.913182 5.638519 -1.901028 -13.879263 -10.738466 2.414556 -167.259721 -68.617412 -170.375263 11.607803 -13.760761 -17.492329 -11.355379 4.945997 -3.182350 7.153576 -7.201070 0.714114 -134.161348 -57.694575 145.043377 22.347910 -31.356320 3.575657 -17.178293 -35.026239 7.360879 24.821741 86.822764 21.988513 0.615404 -17.355795 -1.490813 0.017253 0.572592 0.015175 -12.671720 -46.879811 13.337761 176.269464 80.521647 171.191962 -2.914224 -17.198827 2.902473 -0.052050 -0.558769 -0.024036
-7.286666 55.411554 24.364639 -179.427378 -31.113050 -9.395649 0.655447 16.528600 5.221927 0.308205 9.500554 2.510965 0.459504 11.881708 3.157091 0.312958 9.495658 2.508127 4.967172 20.774712 -1.971670 5.826126 -3.441863 -3.274093 0.909648 5.712626 -1.870921 -13.841019 -10.722677 2.422662 -167.313072 -68.547413 -170.337750 11.580407 -13.688891 -17.452388 -11.375499 5.040068 -3.169876 7.154610 -7.183697 0.731664 -134.146525 -57.700898 145.034447 22.291631 -31.366019 3.495252 -17.198442 -35.029772 7.372862 24.747538 86.808363 21.911970 0.624853 -17.330789 -1.512986 0.016549 0.569952 0.011662 -12.652078 -46.881288 13.324710 176.257292 80.536429 171.188483 -2.907117 -17.183512 2.896551 -0.058691 -0.555596 -0.023181
-7.280419 55.414136 24.376329 -179.436975 -31.115061 -9.388166 0.660315 16.549052 5.224059 0.312878 9.495855 2.507938 0.462863 11.887970 3.157255 0.315893 9.500506 2.508151 4.972104 20.817218 -1.987536 5.828934 -3.421215 -3.295363 0.910616 5.802892 -1.837896 -13.809473 -10.709009 2.425166 -167.335334 -68.566390 -170.310279 11.622867 -13.705044 -17.436936 -11.388025 5.151114 -3.163410 7.157033 -7.175295 0.748589 -134.176392 -57.728432 145.055473 22.241480 -31.369591 3.460715 -17.202312 -35.034412 7.374190 24.603776 86.799570 21.781159 0.639532 -17.312969 -1.536328 0.013819 0.571681 0.011388 -12.642335 -46.883429 13.315270 176.252702 80.548169 171.192168 -2.905217 -17.169348 2.889887 -0.055217 -0.555057 -0.024116
-7.274505 55.415207 24.386652 -179.456823 -31.110497 -9.372489 0.670147 16.563542 5.221967 0.318913 9.505167 2.508220 0.466416 11.878614 3.154660 0.318856 9.505260 2.508338 4.976933 20.850644 -2.001795 5.829223 -3.407960 -3.315159 0.910100 5.880984 -1.800978 -13.778655 -10.696870 2.420774 -167.443637 -68.575475 -170.204340 11.651199 -13.746169 -17.423295 -11.395767 5.248258 -3.158232 7.159718 -7.173073 0.763271 -134.246824 -57.776407 145.101621 22.192966 -31.367443 3.468958 -17.230301 -35.049918 7.385429 24.776628 86.792162 21.947911 0.651780 -17.288265 -1.561316 0.009977 0.565559 0.006703 -12.646383 -46.891646 13.312086 176.256859 80.555297 171.194909 -2.889711 -17.155068 2.875439 -0.052837 -0.557069 -0.025402
-7.268426 55.414762 24.396037 -179.491438 -31.097039 -9.349064 0.691758 16.589766 5.229692 0.326194 9.491003 2.499782 0.486109 11.925061 3.166189 0.314224 9.477507 2.499582 4.974457 20.850701 -2.016995 5.828253 -3.400686 -3.333694 0.903120 5.926312 -1.764754 -13.752013 -10.688599 2.413232 -167.592962 -68.551501 -170.063604 11.660579 -13.800139 -17.431762 -11.406022 5.305705 -3.151857 7.156997 -7.195654 0.773035 -134.313175 -57.853133 145.131309 22.136677 -31.427198 3.491831 -17.211251 -35.080819 7.386161 24.762171 86.790268 21.952542 0.660144 -17.270062 -1.577388 0.013720 0.565733 0.002053 -12.625170 -46.911858 13.306324 176.301909 80.561633 171.243927 -2.874551 -17.146221 2.866913 -0.049968 -0.556429 -0.025431
-7.261575 55.414386 24.402386 -179.508388 -31.085776 -9.337851 0.704336 16.598226 5.235426 0.336131 9.524390 2.511309 0.484555 11.895669 3.155989 0.339773 9.531341 2.513840 4.950665 20.810921 -2.045599 5.826419 -3.397819 -3.350878 0.874583 5.890251 -1.762211 -13.730199 -10.641300 2.410514 -167.726225 -68.525890 -169.933570 11.688686 -13.733255 -17.338888 -11.430671 5.312936 -3.154233 7.147628 -7.259179 0.773157 -134.327536 -57.959517 145.100696 22.086811 -31.367907 3.557012 -17.226292 -35.102018 7.399012 24.770809 86.793311 21.964773 0.670669 -17.251736 -1.595523 0.020985 0.561634 0.000010 -12.621511 -46.928416 13.299660 176.472535 80.566582 171.421665 -2.832867 -17.138811 2.853035 -0.050195 -0.557646 -0.025880
-7.254407 55.414193 24.405740 -179.518269 -31.078684 -9.329880 0.713487 16.608052 5.240520 0.341974 9.528367 2.513899 0.479249 11.881639 3.149963 0.346400 9.540551 2.517516 4.958603 20.824478 -2.054971 5.824544 -3.398565 -3.365897 0.882895 5.967710 -1.725210 -13.725612 -10.661796 2.391198 -167.807483 -68.503672 -169.851425 11.703954 -13.713616 -17.290684 -11.435747 5.335290 -3.157375 7.140232 -7.212935 0.798904 -134.436868 -58.033889 145.196595 22.045561 -31.290783 3.619494 -17.273676 -35.115048 7.408797 24.987858 86.792478 22.176791 0.702909 -17.232494 -1.630417 0.013739 0.553929 -0.002261 -12.633983 -46.935931 13.300946 176.507704 80.566575 171.454802 -2.812858 -17.138751 2.839226 -0.053836 -0.556774 -0.026132
-7.246649 55.414164 24.406528 -179.525162 -31.074947 -9.323870 0.725316 16.617088 5.246733 0.347499 9.531168 2.516673 0.480927 11.891400 3.154806 0.342309 9.528873 2.513987 4.969806 20.830058 -2.065012 5.823338 -3.402144 -3.378383 0.891992 6.032389 -1.692808 -13.722129 -10.679824 2.366739 -167.850647 -68.462186 -169.816489 11.688912 -13.690456 -17.249824 -11.441861 5.355260 -3.160795 7.132067 -7.124572 0.837387 -134.595837 -58.083373 145.369531 22.005505 -31.241450 3.645796 -17.296741 -35.125324 7.421333 24.968581 86.801220 22.158088 0.706624 -17.213829 -1.633166 0.015396 0.542537 -0.014430 -12.643323 -46.939701 13.304080 176.512116 80.562400 171.457275 -2.810352 -17.138287 2.835920 -0.052191 -0.558991 -0.030459
-7.238803 55.413561 24.406058 -179.530268 -31.067115 -9.315434 0.737494 16.618077 5.248450 0.352663 9.532211 2.519423 0.486351 11.901047 3.161487 0.375048 9.544363 2.523093 4.939666 20.803159 -2.082960 5.816682 -3.407053 -3.382724 0.851547 6.033012 -1.681586 -13.715964 -10.667156 2.349786 -167.785178 -68.472178 -169.864774 11.687190 -13.700251 -17.228560 -11.495207 5.368797 -3.163930 7.138565 -7.133971 0.840311 -134.626220 -58.153048 145.398713 21.968134 -31.191393 3.642910 -17.317754 -35.136659 7.438852 24.879227 86.810895 22.062099 0.703845 -17.209578 -1.637334 0.015865 0.540741 -0.017770 -12.649990 -46.948494 13.290963 176.514195 80.558651 171.466568 -2.787640 -17.142785 2.820553 -0.052365 -0.557325 -0.033066
-7.229590 55.412651 24.404441 -179.529641 -31.056784 -9.313971 0.745536 16.613938 5.252744 0.357478 9.531647 2.521660 0.515318 11.911264 3.172750 0.357456 9.531608 2.521729 4.933790 20.800912 -2.089012 5.804192 -3.411136 -3.377269 0.830762 6.038023 -1.675187 -13.713373 -10.655966 2.343715 -167.615021 -68.514514 -170.006051 11.682517 -13.708132 -17.209052 -11.519262 5.407885 -3.172751 7.149877 -7.147877 0.840920 -134.618455 -58.204542 145.396855 21.932575 -31.141334 3.618842 -17.332938 -35.148001 7.443964 24.983097 86.816799 22.182613 0.703275 -17.207807 -1.658680 0.021231 0.536621 -0.019624 -12.662375 -46.960490 13.280484 176.481732 80.550251 171.446545 -2.765497 -17.146088 2.803736 -0.054401 -0.556900 -0.034387
